<?xml version="1.0" encoding="UTF-8"?>
<svg id="Layer_1" data-name="Layer 1" xmlns="http://www.w3.org/2000/svg" viewBox="0 0 204.65 847.29">
  <defs>
    <style>
      .cls-1 {
        fill: #3c2824;
        stroke-width: 0px;
      }
    </style>
  </defs>
  <path class="cls-1" d="M204.65,215.72c-2.15-1.13-4.41-2.17-6.42-3.4-2.2-1.35-4.58-1.71-7.53-1.68-5.35.06-10.71-.28-16.07-.43-1.39-.04-2.8.07-4.19,0-5.08-.23-10.15-.68-15.23-.71-3.62-.02-7.26.47-10.87.81-3.59.34-5.67,2.48-8.68,3.54-1.73.61-3.37,1.4-4.82,2.29-2.64,1.63-5.94,2.36-9.17,2.87-2.78.44-5.81.09-9.33.09.68-.56.92-.84,1.26-1.03,5.64-3.07,11.29-6.13,16.93-9.19.41-.22.73-.55,1.18-.7,3.76-1.24,4.27-3.36,4.25-6-.21-35.22-.26-70.45-.36-105.67-.06-20.7-.12-41.4-.19-62.11-.04-11.47-.09-22.94-.14-34.41h69.39v215.72Z"/>
  <path class="cls-1" d="M186.59,405.72c-2.22,3.59-5.25,6.33-8.29,9.05-2.4,2.15-18.26,16.06-20.59,18.3-3.69,3.56-7.33,7.17-10.96,10.81-1.26,1.27-2.35,2.73-3.61,4.01-2.57,2.63-5.12,5.18-7.29,8.29-2.9,4.16-6.61,7.65-9.81,11.58-4.38,5.39-9.27,10.28-12.96,16.38-2.83,4.68-6.55,8.75-9.87,13.1-1,1.3-1.97,2.63-2.98,3.92-.85,1.08-1.58,2.35-2.63,3.13-2.25,1.67-3.89,3.85-5.4,6.23-2.02,3.17-4.06,6.33-6.29,9.33-3.03,4.1-5.16,8.76-7.38,13.36-2.47,5.12-4.79,10.33-7.19,15.49-.69,1.49-1.42,2.97-2.22,4.4-1.54,2.78-1.95,5.8-1.68,8.95.48,5.57.93,11.15,2.28,16.57.89,3.59,2.05,7.11,3.11,10.66.61,2.04,1.41,4.02,1.83,6.1,1.1,5.43,3.27,10.47,4.74,15.75.5,1.79.78,3.64,1.23,5.45.26,1.03.46,2.17,1.02,3,1.69,2.51,1.82,5.41,2.21,8.3.67,5.04,1.8,9.98,3.29,14.81.78,2.52,1.85,4.94,2.6,7.47.78,2.65,1.89,5.15,2.18,8.03.23,2.32,1.32,4.55,2.09,6.79.94,2.75,1.94,5.46,2.9,8.2.38,1.08.62,2.23,1.08,3.27,2.49,5.64,4.66,11.49,7.65,16.8,2.51,4.45,4.56,9.05,6.47,13.78,1.06,2.62,2.21,5.21,3.41,7.76.82,1.75,1.94,3.35,2.66,5.15,2.09,5.26,4.66,10.25,7.21,15.26.9,1.77,1.24,3.86,1.87,5.79,1.1,3.36,2.25,6.7,3.36,10.05,1.08,3.27,2.16,6.54,3.19,9.82.88,2.79,1.7,5.6,2.53,8.4.5,1.7.75,3.51,1.45,5.1,2.76,6.31,5.12,12.79,7.09,19.41,1.52,5.09,2.84,10.24,4.68,15.22,1.25,3.37,2.45,6.78,3.45,10.25,1.08,3.72,1.87,7.55,2.88,11.3.46,1.7,1.16,3.33,1.75,5,.3.83.66,1.65.9,2.5.87,3.07,1.7,6.16,2.55,9.23h-31c.03-5.91.08-11.83.08-17.74-.02-22.77-.07-45.54-.06-68.31,0-1.92-.2-3.74-1.04-5.44-2.13-4.33-3.72-8.9-4.96-13.6-1.01-3.83-2.75-7.28-4.6-10.66-2.84-5.18-4.84-10.71-6.41-16.45-.3-1.11-.59-2.26-1.11-3.25-2.35-4.53-4.73-9.05-7.21-13.49-1.49-2.66-3.41-5.05-4.76-7.78-2.39-4.82-5.18-9.42-6.91-14.63-1.08-3.23-2.48-6.39-4.11-9.34-1.68-3.03-1.94-6.42-2.88-9.64-.47-1.6-.77-3.26-1.19-4.88-1.41-5.48-2.96-10.93-4.22-16.45-.74-3.26-1.03-6.65-1.56-9.97-.17-1.05-.44-2.09-.68-3.12-.38-1.63-1.07-3.26-1.09-4.9-.03-3.7-1.14-6.97-2.72-10.16-.65-1.32-1.1-2.78-1.54-4.21-1.95-6.43-3.82-12.89-5.79-19.31-1.4-4.56-2.98-9.05-4.3-13.63-.5-1.73-.46-3.65-.69-5.47-.33-2.65-.8-5.3-.96-7.96-.12-2.03.06-4.14,1.17-5.91,1.71-2.73,3.49-5.4,5.34-8.25-.61-.19-1.21-.45-1.83-.57-1.05-.2-2.18-.12-3.17-.48-4.72-1.72-9.28-3.89-13.2-7.26-1.8-1.55-3.75-2.58-5.89-3.33-4.55-1.62-9.13-3.17-13.64-4.89-1.86-.71-3.64-1.74-5.39-2.76-2.17-1.26-4.28-2.51-6-4.62-1.22-1.5-1.83-3.11-2.36-4.86-.2-.67-.22-1.42-.24-2.13-.05-3.02-1.31-5.39-3.19-7.54-.94-1.07-1.61-2.42-2.39-3.66-1.06-1.69-.62-3.4-.04-5.11.66-1.96.45-2.56-.96-3.93-1.28-1.24-2.76-2.42-3.61-3.97-1.45-2.65-1.17-5.69-.73-8.64.1-.69.3-1.36.47-2.1-1.2-.63-2.39-1.09-3.4-1.82-2.95-2.15-3.21-6.2-.39-8.58,2.4-2.03,5.07-3.7,7.62-5.53,4.04-2.91,8.71-4.25,13.16-6.15.72-.31,1.63-.13,2.69-.19.36-.59.84-1.39,1.33-2.2,1.84,1.85,1.82,2.13-.34,4.26.54,2.02.96,4.1.19,6.23-.6,1.66-1.54,3.01-3.14,3.58-.53.19-1.47.1-1.75-.27-.32-.43-.32-1.39-.11-1.98.29-.79.91-1.45,1.17-2.55-.64.27-1.27.54-1.91.8-3.01,1.23-4.03.93-6.07-2.03-2.9,1.94-5.87,3.84-8.75,5.9-.78.56-1.36,1.54-1.86,2.44-.61,1.09-.42,2.2.36,3.2.7.89,1.33,1.83,2,2.77,1.81-1.41,2.83-2.69,3.51-4.38,1.02-2.53,3.87-3.97,6.38-3.28,1.19.33,2.3.97,3.48,1.34,3.48,1.09,6.86,2.55,10.59,2.61,2.3.03,4.44,1.08,6.49,2.15,3.55,1.86,7.04,3.85,10.6,5.69,1.32.68,2.77,1.06,4.24,1.61.61-2.69-1.85-4.41-1.65-7.08.66.2,1.08.22,1.39.43,2.2,1.5,3.56,3.74,4.4,6.3.65,1.98.07,3.07-1.76,3.98-.21.11-.56.12-.64.29-1.44,3.18-4.32,4.23-7.29,5.53.85.91,1.84.85,2.72,1.16.99.34,1.98.83,2.82,1.49,1.65,1.3,3.18,2.76,5.01,4.38-.19-3.14-2.14-5.73-.69-9.23,1.13,1.79,2.2,3.05,2.82,4.53,1.58,3.8,4.67,4.95,8.03,5.44,2.23.33,4.02,1.31,5.94,2.85-4.36,2.2-8.32,1.25-12.63-.86.52.91.85,1.48,1.17,2.05,1.35,2.4.83,4.86-1.39,6.44-2.25,1.6-4.66,2.26-7.57,1.16.92,1.76,1.67,3.21,2.43,4.66,1.04,1.96.97,3.13-.65,4.61-2.08,1.9-4.61,2.71-7.33,2.75-2.73.05-5.18-1.13-7.67-2.15-.95-.39-1.94-.68-3.02-1.05-.76,2.33-2.19,3.14-4.09,3.2-1.6-1.88.43-2.87.81-4.37-.44-.62-.93-1.33-1.51-2.16-.65.17-1.27.41-1.9.47-.36.04-.99-.13-1.06-.36-.13-.43-.11-1.22.14-1.42.86-.66,1.81-1.21,2.79-1.65,1.18-.52,1.95.14,2.76,1.11,1.39,1.65,3.29,2.12,5.26,1.59,1.59-.42,2.82-.64,3.77,1.3.55,1.14,3.34,1.79,5.71,1.83-.52-2.09-1.04-4.21-1.66-6.72-2.32-1.15-5-2.57-7.75-3.8-3.06-1.37-5.58-3.51-8-5.87-1.26-1.23-2.65-2.31-3.94-3.41-1.39,1.89-2.53,3.51-3.75,5.07-1.5,1.91-2.47,2.15-4.26.37,0-2.59,1.92-4.14,3.14-6.06.46-.72,1.27-1.18,1.76-1.88,1.59-2.28,3.78-2.36,6.04-1.88.74.16,1.5.72,2.06,1.3,1.43,1.48,2.64,3.23,4.16,4.6,2.6,2.34,5.27,4.61,8.08,6.63,1.48,1.06,3.31,1.63,5.04,2.2.57.19,1.43-.14,2-.51,1.48-.95,2.87-2.05,4.41-3.17-.42-.25-.95-.63-1.52-.89-1-.44-2.05-.76-3.04-1.22-1.71-.81-2.73-2.02-2.55-4.28.22-2.7-.27-3.06-2.65-3.3-5.24-.53-10.34-1.49-14.63-5.23-1.79-1.55-3.69-3.03-5.73-4.13-1.41-.76-3.14-1.05-4.74-1.11-1.34-.05-1.97,1.45-2.72,2.5-.71.98-1.34,2.06-2.18,2.89-.36.36-1.26.46-1.74.24-.79-.37-.47-1.19-.17-1.86.58-1.29,1.15-2.58,1.74-3.86,1.44-3.14,4-4.55,6.88-4.03,2.42.44,4.78,1.15,6.86,2.86,2.35,1.94,4.92,3.61,7.48,5.24.88.56,2.02.63,3.05.92.35-2.42.89-2.95,2.89-3.14.69-.07,1.36-.36,2.54-.69-.88-.59-1.32-.93-1.79-1.19-.73-.4-1.51-.71-2.23-1.14-2.05-1.23-2.24-1.7-1.83-4.57-3.68-1.76-7.1-4.24-11.49-4.33-2.28-.05-4.57-.81-6.8-1.48-1.75-.52-3.4-1.4-5.1-2.11-2.1-.87-3.15-.36-4.13,1.88-1.05,2.41-2.44,4.7-3.14,7.22-.78,2.84-.62,5.69,1.44,8.22,1.32,1.62,2.32,3.61,3.17,5.58.41.96.42,2.33.15,3.37-.39,1.47-.12,2.62.59,3.79.18.3.32.64.54.9,2.57,3.05,3.66,6.77,4.06,10.74.29,2.89,1.69,4.79,3.96,6.07,4.17,2.35,8.31,4.7,12.93,6.06,4.6,1.36,9.21,2.91,13.43,5.45.51.3,1.07.55,1.5.96,3.96,3.75,8.71,5.75,13.71,7.2.85.25,1.78.24,2.67.27,1.4.04,2.8.01,4.72.01,1.56-1.94,2.9-4.71,4.22-7.46,2.41-5.01,5-9.85,8.45-14.15,1.89-2.36,3.44-5.04,5.27-7.46,3.99-5.26,7.95-10.55,12.15-15.61,3.78-4.55,6.73-9.67,9.75-14.77,1.38-2.32,2.49-4.98,4.32-6.8,1.83-1.81,2.76-4.44,5.21-5.57-1.65-4.11-.38-7.52.68-11.23,1.62-5.67,4.9-10.42,6.71-15.92.19-.58.44-1.19.45-1.78.03-8.42.02-16.84.02-25.19-1.72-1.8-3.63-1.06-5.29-.56-2.21.67-4.38,1.66-6.39,2.85-1.64.97-3.14,2.32-4.5,3.72-2.1,2.16-4.07,4.41-6.82,5.74-4.51,2.18-8.49,1.19-12.3-1.93.52.03,1.05,0,1.56.12,1.06.23,2.1.59,3.16.78,1.84.34,3.52.04,5.25-.94,3.15-1.79,5.69-4.27,8.06-7.06,1.05-1.23,2.33-2.31,3.66-3.17,2.54-1.65,5.11-3.34,7.83-4.58,3.13-1.43,6.26-1.57,8.89,1.56,1.04,1.24,2.57,2.02,3.58,3.28.83,1.03,1.66,2.45,1.7,3.73.05,1.83.71,3.03,2.07,4.35.94-1.48,1.86-2.9,2.76-4.34,2.41-3.84,4.67-7.79,7.24-11.5,3.21-4.63,6.66-9.07,10.04-13.57,1.29-1.71,16.13-15.09,17.49-16.74,2.91-3.54,5.37-7.53,8.9-10.46v4.3c-.69.74-1.44,1.44-2.07,2.23-2.62,3.31-5.15,6.69-7.81,9.96-2.5,3.08-18.73,17.67-21.12,20.84-4.07,5.42-7.49,11.34-10.67,17.41-.53,1-1.01,2.04-1.58,3-1.21,2.03-2.63,3.93-3.69,6.04-3.52,6.96-6.84,14.02-8.94,21.67-.47,1.7-1.28,3.29-1.89,4.94-.62,1.68-1.17,3.39-1.76,5.08.16.11.31.22.47.32.99-1.02,2.16-1.89,2.93-3.07,3.33-5.15,7.34-9.59,11.76-13.65,3.09-2.84,6.14-5.71,9.12-8.67,3.65-3.63,20.61-19.18,24.3-22.75,3.56-3.44,7.29-6.68,10.95-10.01v4.3Z"/>
  <path class="cls-1" d="M173.12,364.73c-.91.73-1.8,1.5-2.75,2.18-2.17,1.58-4.59,1.06-6.94.79-.37-.04-.71-.68-1.03-1.07-.22-.26-.32-.72-.57-.84-3.22-1.52-3.39-4.65-3.63-7.76-.36-4.72.89-9.2,1.81-13.72.92-4.53,2.34-9,2.73-13.57.41-4.77-.13-9.63-.29-14.46,0-.2-.29-.39-.54-.7-1.47,3.68-3.18,7.04-5.48,10.12-1.04,1.39-1.06,3.69-1.41,5.61-.4,2.17-.48,4.42-1.01,6.54-.66,2.66-1.49,5.3-2.51,7.83-1.36,3.36-2.91,6.63-4.49,9.87-1.26,2.6-2.58,2.92-5.03,1.47-1.71-1.01-3.41-2.05-5.52-3.32-.41,2.5-.95,4.55-1.06,6.64-.18,3.45-.71,6.94.36,10.34.23.73.59,1.44,1.02,2.06,1.34,1.91,1.34,3.75-.07,5.58-2.06,2.66-4.11,5.33-6.16,8-1.47,1.92-3.23,3.34-5.72,3.81-.25-2.38.55-4.35,1.78-6.13,1.77-2.58,3.6-5.11,5.5-7.57.67-.87,1.05-1.7.46-2.64-1.35-2.16-1.25-4.51-1.15-6.96.19-4.57.68-9.06,2.11-13.41.87-2.66,2.87-3.79,5.17-2.6,1.48.77,2.89,1.73,4.23,2.76.9.69,1.62.53,2.13-.31,1.92-3.21,3.91-6.39,5.59-9.74,1.56-3.1,1.88-6.46.59-9.85-.12-.33-.25-.7-.22-1.04.31-4.17.34-8.42,3.36-11.71,2.3-2.51,3.56-5.64,3.78-9.1.18-2.84-.04-5.71-.17-8.56-.03-.68-.37-1.37-.65-2.02-1.06-2.48-2.41-3.16-4.84-2.38-1.04.33-2.02.87-3.06,1.13-1.04.26-2.13.29-3.23.42-.86,2.06-1.7,4.09-2.54,6.13-.83,2-2.46,3.11-4.1,4.16-.53.34-1.31.24-2.07.09,1.33-1.9,3.08-3.3,3.67-5.93-1.63.27-2.94.32-3.85,1.86-.51.86-1.37,1.79-2.24,2.04-1.87.55-2.38,2.1-2.91,3.69-.78,2.33-1.4,4.72-2.18,7.05-1.15,3.4-4.33,4.22-6.42,1.47-1.29-1.7-2.38-3.68-3.16-5.71-1.33-3.46-2.29-7.07-3.49-10.59-1.19-3.51-2.29-7.08-3.8-10.42-.84-1.86-2.28-3.55-3.78-4.87-1-.88-2.57-1.19-3.93-1.35-2.29-.27-3.93-1.27-4.75-3.65-.75-2.18-1.53-4.35-2.28-6.53-1.76-5.14-3.98-10-7.56-14-3.46-3.87-8.36-4.41-12.44-1.48-.85.61-1.17,1.36-1.25,2.44-.28,4.1-.53,8.21-1.02,12.28-.23,1.92-.71,3.94-1.56,5.62-1.59,3.14-2.35,6.47-2.83,9.93-.64,4.58-1.25,9.17-1.89,13.87,1.79-.52,2.97-1.92,4.21-3.18,1.73-1.75,3.77-2.58,6.13-2.51,1.13.03,1.13.06,2.5,1.65-.94,0-1.54.05-2.13,0-3.09-.29-5.44,1.16-7.47,3.5-1.12,1.28-2.31,2.49-3.44,3.71.58,1.3,1.02,2.22,2.25,2.83,1.07.52,1.75,1.98,2.65,3.08,1.14-1.94,2.8-3.21,5.45-3.9-1.9,3.27-5.8,4.66-5.19,9.22,4.94-2.48,8.26-7.03,12.69-9.81.15.16.31.32.46.48-.85,1.63-1.71,3.26-2.94,5.61-.41-.94-.61-1.4-.79-1.84-1.45,1.4-2.78,2.7-4.23,4.11.59.72,1,1.23,1.48,1.82.65-1.52,1.25-2.93,1.85-4.33.2.09.41.19.61.28-.74,3.01-1.69,5.93-3.23,8.84-1.4-.89-2.65-1.69-3.84-2.45-1.09.74-1.99,1.53-3.02,2-1.24.56-1.82,1.7-2.66,2.67-2.58,2.98-2.76,6.84-3.39,10.44-.91,5.2-2.92,9.81-5.53,14.2-.13.22-.23.47-.43.9,1.23,1.14,2.64,2.16,3.7,3.49,1.4,1.75,2.93,2.8,5.13,3.08,1.23.16,2.44,1.12,3.51,1.94,1.88,1.43,2.13,4.3.52,6.47-.35-.5-.83-.89-.97-1.4-1.33-4.92-2.99-6.71-7.54-6.96-3.41-.19-5.06-2.66-6.84-5.08-.73-1-.32-2.13.39-2.95,3.57-4.17,4.85-9.45,6.22-14.69.13-.51.18-1.08.13-1.6-.38-4.09,1.51-7.24,3.71-10.2,2.08-2.8,1.5-5.91,1.01-8.96-.2-1.26-1.4-1.62-2.6-1.59-1.68.05-3.28-.09-4.65-1.43-1.3-1.27-1.61-2.26-.88-3.95.41-.95.69-1.96,1.05-2.93.4-1.07.68-2.23,1.27-3.16,1.9-3.02,2.95-6.43,3.9-9.84.78-2.78,1.02-5.74,1.52-8.61.93-5.34,1.89-10.68,2.82-16.02.07-.42.06-.86.09-1.31-3.32-1-5.82-3.04-8.11-5.63-2.02-2.28-2.23-4.8-1.51-7.45.53-1.93,1.59-3.71,2.5-5.5.21-.42.73-.78,1.18-.92,3.34-1.03,4.81-3.89,6.03-7,2.04-5.18,4.12-10.34,6.07-15.56,1.53-4.09,4.74-5.78,8.27-7.1,2.33-.87,4.81-1.46,6.95-2.7,2.33-1.35,4.67-1.51,6.97-.82,2.63.8,4.88.47,7.11-1.05.98-.67,2.03-1.23,3.03-1.86.93-.59,1.82-.81,2.8.17-.25.5-.39,1.03-.7,1.39-2.71,3.13-5.81,5.58-9.81,6.43-.57.12-1.21.3-1.72.13-1.58-.52-3.1.1-4.63.05-2.67-.08-5.09.88-7.5,1.79-1.25.47-2.42,1.55-3.31,2.65-1.57,1.96-3.11,4.02-4.27,6.27-1.32,2.55-2.63,5.26-3.19,8.08-.75,3.75-2.58,6.74-4.57,9.68-1.2,1.77-2.63,3.37-4.04,4.96-.98,1.1-1.35,2.15-.57,3.58.31.57.32,1.35.4,2.05.24,2.2.94,4.13,2.53,5.59.23-.17.43-.25.46-.37.33-1.49,1.1-2.5,2.18-3.59,1.3-1.32,2.59-2.43,4.19-3.19,2.37-1.12,4.72-1.37,7.2-.22,3,1.4,5.32,3.56,7.15,6.44,2.92,4.59,5.39,9.42,6.96,14.75.2.68.45,1.35.73,2,.88,2.04,2.08,3.31,4.47,3.4,4.24.17,7.17,2.96,8.81,6.92,2.02,4.88,3.67,9.95,5.34,14.98,1.25,3.78,2.47,7.56,4.33,11.05.29.55.86.92,1.69,1.78.46-2.34,1.03-4.13,1.13-5.95.23-4.24,2.28-7,5.71-8.68.84-.41,1.89-.32,2.85-.42,1.3-.14,2.63-.11,3.9-.39,1.27-.29,2.14-1.05,2.37-2.69.34-2.38,1.93-3.6,4.06-4.16,1.28-.34,2.55-.78,3.75-1.35,3.85-1.84,9.41.11,10.55,5.14.78,3.43,1.11,6.86,1.08,10.34-.01,1.3.05,2.38,1.04,3.38,1.22,1.24,1.4,3.03,1.48,4.74.2,4.2.5,8.41.43,12.61-.05,3.1-.63,6.19-.95,9.29-.55,5.21-1.19,10.41-.88,15.67.07,1.13.46,2.24.68,3.24,2.34,2.63,4.5.46,6.66-.16.92-.27,1.71-1.05,2.56-1.6v6.46Z"/>
  <path class="cls-1" d="M24.42,450.43c1.23-.38,2.46-.75,4.04-1.23.02-.55.07-1.5.1-2.45.02-.54-.03-1.08,0-1.61.09-1.61.57-3.26,1.97-3.77,1.38-.49,2.89.06,4.08,1.21.71.69,1.5,1.28,2.6,2.21.47-2.8.88-5.14,1.27-7.48.93-5.62,2.45-11.06,6.45-15.02,2.47-2.44,5.51-4.23,8.35-6.22,3.18-2.24,6.74-4,9.55-6.67,3-2.85,6.21-5.65,8.3-9.51.41-.76,1-1.44,1.57-2.07.87-.97,2.02-1.1,2.9-.42.92.7.57,1.53.26,2.39-.24.67-.49,1.35-.56,2.05-.3,2.94-1.78,5.11-3.69,7.1-3.82,3.98-7.65,7.95-11.28,12.13-2.37,2.73-4.46,5.76-6.5,8.8-.7,1.03-1.05,2.44-1.26,3.73-.51,3.14-.78,6.31-.6,9.53.18,3.18.04,6.38.04,10.11,1.76.89,3.9,2.01,6.07,3.08,3.06,1.51,6.15,2.95,9.19,4.52.71.37,1.36,1.03,1.86,1.71,1.98,2.73,4.16,5.35,5.75,8.33,1.63,3.06,4.11,5.3,5.92,8.17.69,1.09,2.11,1.61,3.06,2.56,1.02,1.01,2.02,2.12,2.79,3.36,3.93,6.32,5.53,10.82,6.56,16.63-2.13-2.59-4.15-4.78-5.36-7.74-.83-2.01-2.1-3.81-3.09-5.75-.74-1.47-1.94-2.32-3.1-3.35-3.03-2.68-6.28-5.12-8.34-8.95-1.32-2.45-3.16-4.57-4.76-6.84-.05-.07-.14-.12-.17-.2-1.72-4.29-5.53-5.07-9.06-6.56-2.74-1.16-5.21-3.04-8.03-4.74-.17.49-.46,1.07-.56,1.7-.69,4.04-1.46,8.05-3.39,11.68-1.1,2.05-2.42,3.84-4.84,4.76-.65-.59-1.37-1.24-2.27-2.06.88-1.16,1.57-2.14,2.34-3.05,1.35-1.61,2.39-3.32,2.79-5.53.73-4.11,1.82-8.16,2.43-12.29.38-2.62.07-5.36.24-8.03.24-3.71.52-7.43,1-11.11.48-3.7,2.57-6.55,4.89-9.16,1.2-1.36,2.53-2.58,3.78-3.89.52-.55.98-1.16,1.52-1.8-.42-.6-.76-1.08-1.07-1.51-.23,0-.42-.06-.54,0-3.27,2.11-6.6,4.12-9.76,6.41-1.17.85-2.07,2.28-2.82,3.63-2.24,4.03-3.39,8.42-4.04,13.11-.64,4.66-1.94,9.23-3.21,13.75-.51,1.83-1.65,3.51-3.36,4.47-2.2,1.24-3.68.4-4.08-2.24-.53-3.47-1.6-4.57-4.93-5.19-.35-.06-.64-.5-.95-.76l-.08.1ZM32.29,445.57c-.22,3.76-.74,7.01,1.12,10.22,1.8-1.91,2.6-4.01,2.82-6.36-1.27-1.25-2.44-2.38-3.95-3.86Z"/>
  <path class="cls-1" d="M74.06,373.96c.88.6,1.76,1.19,2.64,1.8,1.18.82,2.38,1.61,3.52,2.49,1.8,1.39,3.31,2.99,2.78,5.83-.56.29-1.13.58-1.73.89-.05.96-.06,1.85-.17,2.73-.27,2.28.26,4.05,2.46,4.9.37.14.78.41,1,.75,1.7,2.72,3.33,5.48,5.03,8.2,1.17,1.86,1.14,3.94.84,5.95-.43,2.93-.42,5.7,1.07,8.3.1.18-.02.5-.05.98-1.72-1.43-2.28-3.33-2.81-5.28-.81-2.98-1.49-6.04-2.66-8.85-.89-2.13-2.41-3.97-3.75-5.85-2.73-3.84-4.48-7.94-3.17-12.89.52-1.97-.54-3.21-1.5-4.52-1.23-1.67-2.54-3.27-3.81-4.91.11-.18.22-.35.33-.53Z"/>
  <path class="cls-1" d="M24.5,450.33c-2.56,1.67-5.17,3.12-8.02,4.23-2.45.96-4.62,2.75-6.96,4.08-1.16.66-2.5.98-3.62,1.7-1.03.66-1.97,1.55-2.76,2.52-.83,1.01-1.63,1.14-2.29.02-.54-.91-.51-1.86.1-2.75,1.03-1.51,2.52-2.26,4.06-2.97,2.27-1.05,4.51-2.16,6.77-3.24,1.66-.79,3.29-1.7,5-2.32,2.5-.9,5.06-1.6,7.8-2.44-.06.49-.11.87-.16,1.26,0,0,.07-.09.07-.09Z"/>
  <path class="cls-1" d="M143.29,340.69c-4.95-2-5.04-6.54-.69-12.89-.44-.33-.89-.65-1.32-.99-.4-.31-.84-.59-1.18-.97-.76-.83-.69-1.79-.15-2.7.54-.91,1.37-.58,2.02-.25.96.49,1.88,1.12,2.74,1.8,1.7,1.35,1.83,3.36.36,5-.34.38-.76.69-1.13,1.05-1.97,1.96-2.55,4.62-1.59,7.31.25.72.52,1.43.95,2.63Z"/>
  <path class="cls-1" d="M146.47,375.45c1.04,1.67.72,3.46.6,5.18-.39,5.42-.91,10.82-1.31,16.24-.13,1.77.05,3.57-.08,5.35-.08,1.08-.5,2.14-.79,3.34-1.38-.78-1.53-1.82-1.46-2.89.15-2.31.39-4.62.52-6.93.11-1.95.13-3.92.19-5.87.14-4.9.89-9.7,2.34-14.4Z"/>
  <path class="cls-1" d="M153.16,311.28c-2.36-2.05-.35-4.68-1.41-6.79-2.05.48-2.46,2.54-3.39,3.97-.92,1.41-1.56,3.04-2.46,4.85-.25-.61-.44-.83-.41-1.03.47-3.66,1.94-6.82,4.52-9.23,1.79-1.67,3.8-.9,4.32,1.59.28,1.36.32,2.84.15,4.22-.1.81-.82,1.54-1.32,2.41Z"/>
  <path class="cls-1" d="M71.6,339.5c.51-1.47,1-2.95,1.52-4.42.32-.92.69-1.82,1.02-2.74.89-2.45,2.37-3.02,4.52-1.74.27.16.52.38.87.64,2.49-3.6,3.78-8.05,7.65-10.55-.14.5-.14,1.13-.44,1.48-2.16,2.56-3.49,5.64-4.94,8.66-.23.48-.5.94-.82,1.35-.85,1.07-1.73,1.11-2.81.21-1.82-1.54-1.95-1.51-2.98.71-1.01,2.21-2.02,4.43-3.03,6.64-.19-.08-.38-.17-.57-.25Z"/>
  <path class="cls-1" d="M73.61,360.99c-1.47-2.3-3.55-3.03-5.81-3.88.67-.1,1.36-.33,2.02-.26,1.15.12,2.29.37,3.41.66,1.75.46,1.93,1.53.38,3.48Z"/>
</svg>